# xmcd
#
# Track frame offsets:
# 150
# 8934
# 24799
# 48324
# 63057
# 75528
# 91034
# 106845
#
# Disc length: 1702 seconds
#
#
# Revision: 0
# Processed by: cddbd v1.5.1PL0 Copyright (c) Steve Scherf et al.
# Submitted via: FreeRIP 2.942 
#
DISCID=4706a408
DTITLE=Tater - Tater
DYEAR=2000
DGENRE=Bluegrass
TTITLE0=South Mtn. Rag
TTITLE1=Hello Cosmo
TTITLE2=Surfin' For Souls
TTITLE3=City Song
TTITLE4=Creekside
TTITLE5=Change
TTITLE6=Spinnin' Round
TTITLE7=1864
EXTD=
EXTT0=
EXTT1=
EXTT2=
EXTT3=
EXTT4=
EXTT5=
EXTT6=
EXTT7=
PLAYORDER=
